<?xml version="1.0" encoding="UTF-8" standalone="no"?>
<!DOCTYPE svg PUBLIC "-//W3C//DTD SVG 1.1//EN"
 "http://www.w3.org/Graphics/SVG/1.1/DTD/svg11.dtd">
<!-- Generated by graphviz version 2.40.1 (20161225.0304)
 -->
<!-- Title: dependencies Pages: 1 -->
<svg width="504pt" height="284pt"
 viewBox="0.00 0.00 504.00 284.00" xmlns="http://www.w3.org/2000/svg" xmlns:xlink="http://www.w3.org/1999/xlink">
<g id="graph0" class="graph" transform="scale(1 1) rotate(0) translate(4 280)">
<title>dependencies</title>
<polygon fill="#ffffff" stroke="transparent" points="-4,4 -4,-280 500,-280 500,4 -4,4"/>
<text text-anchor="start" x="227.0091" y="-42.4" font-family="sans-serif" font-weight="bold" font-size="14.00" fill="#000000">Legend</text>
<polygon fill="#ffffb3" stroke="transparent" points="14,-10 14,-30 34,-30 34,-10 14,-10"/>
<text text-anchor="start" x="37.629" y="-15.4" font-family="sans-serif" font-size="14.00" fill="#000000"> &#160;Declarations</text>
<polygon fill="#8dd3c7" stroke="transparent" points="127,-10 127,-30 147,-30 147,-10 127,-10"/>
<text text-anchor="start" x="150.7251" y="-15.4" font-family="sans-serif" font-size="14.00" fill="#000000"> &#160;Module</text>
<polygon fill="#80b1d3" stroke="transparent" points="213,-10 213,-30 233,-30 233,-10 213,-10"/>
<text text-anchor="start" x="236.7812" y="-15.4" font-family="sans-serif" font-size="14.00" fill="#000000"> &#160;Bootstrap</text>
<polygon fill="#fdb462" stroke="transparent" points="310,-10 310,-30 330,-30 330,-10 310,-10"/>
<text text-anchor="start" x="333.6732" y="-15.4" font-family="sans-serif" font-size="14.00" fill="#000000"> &#160;Providers</text>
<polygon fill="#fb8072" stroke="transparent" points="406,-10 406,-30 426,-30 426,-10 406,-10"/>
<text text-anchor="start" x="429.7258" y="-15.4" font-family="sans-serif" font-size="14.00" fill="#000000"> &#160;Exports</text>
<g id="clust1" class="cluster">
<title>cluster_CommonsModule</title>
<polygon fill="none" stroke="#000000" stroke-dasharray="1,5" points="38,-70 38,-268 458,-268 458,-70 38,-70"/>
</g>
<g id="clust2" class="cluster">
<title>cluster_CommonsModule_declarations</title>
<polygon fill="none" stroke="#000000" points="52,-78 52,-130 445,-130 445,-78 52,-78"/>
</g>
<g id="clust7" class="cluster">
<title>cluster_CommonsModule_exports</title>
<polygon fill="none" stroke="#000000" points="46,-208 46,-260 450,-260 450,-208 46,-208"/>
</g>
<!-- AvatarComponent -->
<g id="node1" class="node">
<title>AvatarComponent</title>
<polygon fill="#ffffb3" stroke="#000000" points="436.9201,-122 317.0799,-122 317.0799,-86 436.9201,-86 436.9201,-122"/>
<text text-anchor="middle" x="377" y="-99.8" font-family="Times,serif" font-size="14.00" fill="#000000">AvatarComponent</text>
</g>
<!-- CommonsModule -->
<g id="node4" class="node">
<title>CommonsModule</title>
<polygon fill="#8dd3c7" stroke="#000000" points="300.6123,-187 297.6123,-191 276.6123,-191 273.6123,-187 183.3877,-187 183.3877,-151 300.6123,-151 300.6123,-187"/>
<text text-anchor="middle" x="242" y="-164.8" font-family="Times,serif" font-size="14.00" fill="#000000">CommonsModule</text>
</g>
<!-- AvatarComponent&#45;&gt;CommonsModule -->
<g id="edge1" class="edge">
<title>AvatarComponent&#45;&gt;CommonsModule</title>
<path fill="none" stroke="#000000" d="M397.6532,-122.0225C397.6532,-139.3734 397.6532,-163 397.6532,-163 397.6532,-163 310.8458,-163 310.8458,-163"/>
<polygon fill="#000000" stroke="#000000" points="310.8458,-159.5001 300.8458,-163 310.8458,-166.5001 310.8458,-159.5001"/>
</g>
<!-- BoardComponent -->
<g id="node2" class="node">
<title>BoardComponent</title>
<polygon fill="#ffffb3" stroke="#000000" points="299.5451,-122 184.4549,-122 184.4549,-86 299.5451,-86 299.5451,-122"/>
<text text-anchor="middle" x="242" y="-99.8" font-family="Times,serif" font-size="14.00" fill="#000000">BoardComponent</text>
</g>
<!-- BoardComponent&#45;&gt;CommonsModule -->
<g id="edge2" class="edge">
<title>BoardComponent&#45;&gt;CommonsModule</title>
<path fill="none" stroke="#000000" d="M242,-122.1061C242,-122.1061 242,-140.991 242,-140.991"/>
<polygon fill="#000000" stroke="#000000" points="238.5001,-140.9909 242,-150.991 245.5001,-140.991 238.5001,-140.9909"/>
</g>
<!-- TextComponent -->
<g id="node3" class="node">
<title>TextComponent</title>
<polygon fill="#ffffb3" stroke="#000000" points="166.4902,-122 59.5098,-122 59.5098,-86 166.4902,-86 166.4902,-122"/>
<text text-anchor="middle" x="113" y="-99.8" font-family="Times,serif" font-size="14.00" fill="#000000">TextComponent</text>
</g>
<!-- TextComponent&#45;&gt;CommonsModule -->
<g id="edge3" class="edge">
<title>TextComponent&#45;&gt;CommonsModule</title>
<path fill="none" stroke="#000000" d="M129.3317,-122.0225C129.3317,-139.3734 129.3317,-163 129.3317,-163 129.3317,-163 173.3558,-163 173.3558,-163"/>
<polygon fill="#000000" stroke="#000000" points="173.3559,-166.5001 183.3558,-163 173.3558,-159.5001 173.3559,-166.5001"/>
</g>
<!-- AvatarComponent  -->
<g id="node5" class="node">
<title>AvatarComponent </title>
<polygon fill="#fb8072" stroke="#000000" points="442.4194,-252 319.5806,-252 319.5806,-216 442.4194,-216 442.4194,-252"/>
<text text-anchor="middle" x="381" y="-229.8" font-family="Times,serif" font-size="14.00" fill="#000000">AvatarComponent </text>
</g>
<!-- CommonsModule&#45;&gt;AvatarComponent  -->
<g id="edge4" class="edge">
<title>CommonsModule&#45;&gt;AvatarComponent </title>
<path fill="none" stroke="#000000" stroke-dasharray="5,2" d="M300.64,-175C329.6749,-175 358.5968,-175 358.5968,-175 358.5968,-175 358.5968,-205.9775 358.5968,-205.9775"/>
<polygon fill="#000000" stroke="#000000" points="355.0969,-205.9774 358.5968,-215.9775 362.0969,-205.9775 355.0969,-205.9774"/>
</g>
<!-- BoardComponent  -->
<g id="node6" class="node">
<title>BoardComponent </title>
<polygon fill="#fb8072" stroke="#000000" points="301.5442,-252 182.4558,-252 182.4558,-216 301.5442,-216 301.5442,-252"/>
<text text-anchor="middle" x="242" y="-229.8" font-family="Times,serif" font-size="14.00" fill="#000000">BoardComponent </text>
</g>
<!-- CommonsModule&#45;&gt;BoardComponent  -->
<g id="edge5" class="edge">
<title>CommonsModule&#45;&gt;BoardComponent </title>
<path fill="none" stroke="#000000" stroke-dasharray="5,2" d="M242,-187.1061C242,-187.1061 242,-205.991 242,-205.991"/>
<polygon fill="#000000" stroke="#000000" points="238.5001,-205.9909 242,-215.991 245.5001,-205.991 238.5001,-205.9909"/>
</g>
<!-- TextComponent  -->
<g id="node7" class="node">
<title>TextComponent </title>
<polygon fill="#fb8072" stroke="#000000" points="164.4913,-252 53.5087,-252 53.5087,-216 164.4913,-216 164.4913,-252"/>
<text text-anchor="middle" x="109" y="-229.8" font-family="Times,serif" font-size="14.00" fill="#000000">TextComponent </text>
</g>
<!-- CommonsModule&#45;&gt;TextComponent  -->
<g id="edge6" class="edge">
<title>CommonsModule&#45;&gt;TextComponent </title>
<path fill="none" stroke="#000000" stroke-dasharray="5,2" d="M183.2478,-175C142.092,-175 94.4183,-175 94.4183,-175 94.4183,-175 94.4183,-205.9775 94.4183,-205.9775"/>
<polygon fill="#000000" stroke="#000000" points="90.9184,-205.9774 94.4183,-215.9775 97.9184,-205.9775 90.9184,-205.9774"/>
</g>
</g>
</svg>
