<?xml version="1.0" encoding="UTF-8" standalone="no"?>
<!DOCTYPE svg PUBLIC "-//W3C//DTD SVG 1.1//EN"
 "http://www.w3.org/Graphics/SVG/1.1/DTD/svg11.dtd">
<!-- Generated by graphviz version 2.40.1 (20161225.0304)
 -->
<!-- Title: dependencies Pages: 1 -->
<svg width="668pt" height="284pt"
 viewBox="0.00 0.00 668.00 284.00" xmlns="http://www.w3.org/2000/svg" xmlns:xlink="http://www.w3.org/1999/xlink">
<g id="graph0" class="graph" transform="scale(1 1) rotate(0) translate(4 280)">
<title>dependencies</title>
<polygon fill="#ffffff" stroke="transparent" points="-4,4 -4,-280 664,-280 664,4 -4,4"/>
<text text-anchor="start" x="309.0091" y="-42.4" font-family="sans-serif" font-weight="bold" font-size="14.00" fill="#000000">Legend</text>
<polygon fill="#ffffb3" stroke="transparent" points="96,-10 96,-30 116,-30 116,-10 96,-10"/>
<text text-anchor="start" x="119.629" y="-15.4" font-family="sans-serif" font-size="14.00" fill="#000000"> &#160;Declarations</text>
<polygon fill="#8dd3c7" stroke="transparent" points="209,-10 209,-30 229,-30 229,-10 209,-10"/>
<text text-anchor="start" x="232.7251" y="-15.4" font-family="sans-serif" font-size="14.00" fill="#000000"> &#160;Module</text>
<polygon fill="#80b1d3" stroke="transparent" points="295,-10 295,-30 315,-30 315,-10 295,-10"/>
<text text-anchor="start" x="318.7812" y="-15.4" font-family="sans-serif" font-size="14.00" fill="#000000"> &#160;Bootstrap</text>
<polygon fill="#fdb462" stroke="transparent" points="392,-10 392,-30 412,-30 412,-10 392,-10"/>
<text text-anchor="start" x="415.6732" y="-15.4" font-family="sans-serif" font-size="14.00" fill="#000000"> &#160;Providers</text>
<polygon fill="#fb8072" stroke="transparent" points="488,-10 488,-30 508,-30 508,-10 488,-10"/>
<text text-anchor="start" x="511.7258" y="-15.4" font-family="sans-serif" font-size="14.00" fill="#000000"> &#160;Exports</text>
<g id="clust1" class="cluster">
<title>cluster_AppModule</title>
<polygon fill="none" stroke="#000000" stroke-dasharray="1,5" points="8,-70 8,-268 652,-268 652,-70 8,-70"/>
</g>
<g id="clust2" class="cluster">
<title>cluster_AppModule_declarations</title>
<polygon fill="none" stroke="#000000" points="158,-78 158,-130 644,-130 644,-78 158,-78"/>
</g>
<g id="clust7" class="cluster">
<title>cluster_AppModule_imports</title>
<polygon fill="none" stroke="#000000" points="16,-78 16,-130 150,-130 150,-78 16,-78"/>
</g>
<g id="clust9" class="cluster">
<title>cluster_AppModule_bootstrap</title>
<polygon fill="none" stroke="#000000" points="259,-208 259,-260 383,-260 383,-208 259,-208"/>
</g>
<!-- AppComponent -->
<g id="node1" class="node">
<title>AppComponent</title>
<polygon fill="#ffffb3" stroke="#000000" points="635.9399,-122 530.0601,-122 530.0601,-86 635.9399,-86 635.9399,-122"/>
<text text-anchor="middle" x="583" y="-99.8" font-family="Times,serif" font-size="14.00" fill="#000000">AppComponent</text>
</g>
<!-- AppModule -->
<g id="node5" class="node">
<title>AppModule</title>
<polygon fill="#8dd3c7" stroke="#000000" points="362.6571,-187 359.6571,-191 338.6571,-191 335.6571,-187 279.3429,-187 279.3429,-151 362.6571,-151 362.6571,-187"/>
<text text-anchor="middle" x="321" y="-164.8" font-family="Times,serif" font-size="14.00" fill="#000000">AppModule</text>
</g>
<!-- AppComponent&#45;&gt;AppModule -->
<g id="edge1" class="edge">
<title>AppComponent&#45;&gt;AppModule</title>
<path fill="none" stroke="#000000" d="M583,-122.2843C583,-143.3211 583,-175 583,-175 583,-175 372.8044,-175 372.8044,-175"/>
<polygon fill="#000000" stroke="#000000" points="372.8044,-171.5001 362.8044,-175 372.8044,-178.5001 372.8044,-171.5001"/>
</g>
<!-- ChatComponent -->
<g id="node2" class="node">
<title>ChatComponent</title>
<polygon fill="#ffffb3" stroke="#000000" points="511.7744,-122 404.2256,-122 404.2256,-86 511.7744,-86 511.7744,-122"/>
<text text-anchor="middle" x="458" y="-99.8" font-family="Times,serif" font-size="14.00" fill="#000000">ChatComponent</text>
</g>
<!-- ChatComponent&#45;&gt;AppModule -->
<g id="edge2" class="edge">
<title>ChatComponent&#45;&gt;AppModule</title>
<path fill="none" stroke="#000000" d="M458,-122.0225C458,-139.3734 458,-163 458,-163 458,-163 372.8489,-163 372.8489,-163"/>
<polygon fill="#000000" stroke="#000000" points="372.849,-159.5001 362.8489,-163 372.8489,-166.5001 372.849,-159.5001"/>
</g>
<!-- ContactsComponent -->
<g id="node3" class="node">
<title>ContactsComponent</title>
<polygon fill="#ffffb3" stroke="#000000" points="386.3244,-122 255.6756,-122 255.6756,-86 386.3244,-86 386.3244,-122"/>
<text text-anchor="middle" x="321" y="-99.8" font-family="Times,serif" font-size="14.00" fill="#000000">ContactsComponent</text>
</g>
<!-- ContactsComponent&#45;&gt;AppModule -->
<g id="edge3" class="edge">
<title>ContactsComponent&#45;&gt;AppModule</title>
<path fill="none" stroke="#000000" d="M321,-122.1061C321,-122.1061 321,-140.991 321,-140.991"/>
<polygon fill="#000000" stroke="#000000" points="317.5001,-140.9909 321,-150.991 324.5001,-140.991 317.5001,-140.9909"/>
</g>
<!-- FilterPipe -->
<g id="node4" class="node">
<title>FilterPipe</title>
<polygon fill="#ffffb3" stroke="#000000" points="237.7177,-122 166.2823,-122 166.2823,-86 237.7177,-86 237.7177,-122"/>
<text text-anchor="middle" x="202" y="-99.8" font-family="Times,serif" font-size="14.00" fill="#000000">FilterPipe</text>
</g>
<!-- FilterPipe&#45;&gt;AppModule -->
<g id="edge4" class="edge">
<title>FilterPipe&#45;&gt;AppModule</title>
<path fill="none" stroke="#000000" d="M202,-122.0225C202,-139.3734 202,-163 202,-163 202,-163 269.0451,-163 269.0451,-163"/>
<polygon fill="#000000" stroke="#000000" points="269.0451,-166.5001 279.0451,-163 269.045,-159.5001 269.0451,-166.5001"/>
</g>
<!-- AppComponent  -->
<g id="node7" class="node">
<title>AppComponent </title>
<polygon fill="#80b1d3" stroke="#000000" points="375.439,-252 266.561,-252 266.561,-216 375.439,-216 375.439,-252"/>
<text text-anchor="middle" x="321" y="-229.8" font-family="Times,serif" font-size="14.00" fill="#000000">AppComponent </text>
</g>
<!-- AppModule&#45;&gt;AppComponent  -->
<g id="edge6" class="edge">
<title>AppModule&#45;&gt;AppComponent </title>
<path fill="none" stroke="#000000" stroke-dasharray="1,5" d="M321,-187.1061C321,-187.1061 321,-205.991 321,-205.991"/>
<polygon fill="#000000" stroke="#000000" points="317.5001,-205.9909 321,-215.991 324.5001,-205.991 317.5001,-205.9909"/>
</g>
<!-- CommonsModule -->
<g id="node6" class="node">
<title>CommonsModule</title>
<polygon fill="#8dd3c7" stroke="#000000" points="141.6123,-122 138.6123,-126 117.6123,-126 114.6123,-122 24.3877,-122 24.3877,-86 141.6123,-86 141.6123,-122"/>
<text text-anchor="middle" x="83" y="-99.8" font-family="Times,serif" font-size="14.00" fill="#000000">CommonsModule</text>
</g>
<!-- CommonsModule&#45;&gt;AppModule -->
<g id="edge5" class="edge">
<title>CommonsModule&#45;&gt;AppModule</title>
<path fill="none" stroke="#000000" d="M83,-122.2843C83,-143.3211 83,-175 83,-175 83,-175 269.2712,-175 269.2712,-175"/>
<polygon fill="#000000" stroke="#000000" points="269.2713,-178.5001 279.2712,-175 269.2712,-171.5001 269.2713,-178.5001"/>
</g>
</g>
</svg>
